<?xml version="1.0" encoding="UTF-8"?>
<svg width="1334px" height="337px" viewBox="0 0 1334 337" version="1.1" xmlns="http://www.w3.org/2000/svg" xmlns:xlink="http://www.w3.org/1999/xlink" style="background: #586CA0;">
    <!-- Generator: Sketch 47.1 (45422) - http://www.bohemiancoding.com/sketch -->
    <title>Apple TV</title>
    <desc>Created with Sketch.</desc>
    <defs></defs>
    <g id="Page-1" stroke="none" stroke-width="1" fill="none" fill-rule="evenodd">
        <g id="Apple-TV" fill="#ECC90F">
            <path d="M301.524,100.728 L279.348,204.12 C294.324,207.432 309.444,222.696 327.732,222.696 C331.62,222.696 335.652,222.12 339.828,220.392 C338.388,234.216 332.628,243 324.852,243 C304.26,243 286.116,210.312 260.628,210.312 C259.476,210.312 258.468,210.312 257.316,210.456 L278.772,110.664 C266.244,115.848 258.612,126.648 258.612,142.056 C258.612,149.4 260.484,150.552 260.628,151.848 C250.692,151.848 245.22,148.248 245.22,137.88 C245.22,118.728 271.716,100.44 295.764,100.44 C297.78,100.44 299.652,100.584 301.524,100.728 Z" id="Path"></path>
            <path d="M308.868,135 L329.604,135 L315.348,201.816 C324.132,198.648 329.46,193.752 333.492,181.224 L339.54,181.224 C333.924,200.232 322.98,205.704 314.052,208.152 L311.892,218.52 C307.572,239.112 295.476,243 285.972,243 C277.188,243 269.844,238.392 269.844,229.032 C269.844,216.936 282.516,210.888 293.46,207.576 L308.868,135 Z M277.764,227.016 C277.764,229.032 279.492,231.768 282.66,231.768 C285.684,231.768 289.14,227.448 291.012,218.952 L291.876,214.776 C284.532,217.512 277.764,221.256 277.764,227.016 Z" id="Combined-Shape"></path>
            <path d="M310.452,115.704 C310.452,109.368 315.492,104.184 321.828,104.184 C328.164,104.184 333.348,109.368 333.348,115.704 C333.348,122.04 328.164,127.08 321.828,127.08 C315.492,127.08 310.452,122.04 310.452,115.704 Z" id="Path"></path>
            <path d="M352.932,183.672 C352.932,193.464 356.388,195.768 363.3,195.768 C374.676,195.768 381.588,189.432 388.788,181.224 L393.684,181.224 C385.476,194.472 373.236,207.864 354.084,207.864 C340.548,207.864 331.62,201.24 331.62,184.968 C331.62,168.408 340.98,133.704 370.5,133.704 C383.316,133.704 386.34,140.328 386.34,147.528 C386.34,164.088 370.5,176.904 353.22,177.912 C353.076,179.928 352.932,181.944 352.932,183.672 Z M375.252,147.24 C375.252,143.64 374.388,141.336 371.652,141.336 C364.308,141.336 357.252,156.744 354.372,171 C365.46,170.28 375.252,159.192 375.252,147.24 Z" id="Combined-Shape"></path>
            <path d="M442.5,135 L456.756,135 L427.956,155.016 C429.54,154.728 431.124,154.44 432.708,154.44 C443.364,154.44 448.548,162.072 448.548,171.288 C448.548,173.016 448.404,174.888 447.972,176.76 L446.388,183.96 C446.1,185.4 445.668,186.984 445.668,188.568 C445.668,191.448 446.82,193.896 451.284,193.896 C457.62,193.896 460.212,188.712 463.38,181.224 L469.428,181.224 C461.22,205.416 449.556,207.864 442.932,207.864 C431.124,207.864 424.788,201.96 424.788,191.448 C424.788,189.144 425.076,186.696 425.652,183.96 L426.804,178.344 C427.236,176.472 427.38,174.6 427.38,173.016 C427.38,168.84 425.94,166.104 422.196,166.104 C418.884,166.104 415.572,168.12 411.54,171.432 L404.052,207 L383.316,207 L404.196,109.08 L425.508,106.2 L414.708,156.888 L442.5,135 Z" id="Path"></path>
            <path d="M511.764,135 L532.5,135 L522.132,183.96 C521.7,185.832 521.556,187.272 521.556,188.568 C521.556,192.6 523.428,194.76 527.46,194.76 C533.076,194.76 536.964,188.424 539.124,181.224 L545.172,181.224 C536.964,204.696 524.004,207.864 516.228,207.864 C508.164,207.864 502.98,203.256 502.116,194.616 C497.652,201.24 490.884,207.864 480.66,207.864 C470.868,207.864 461.508,201.816 461.508,184.68 C461.508,165.24 473.46,134.28 498.516,134.28 C506.724,134.28 510.18,137.448 510.18,141.624 L510.18,142.632 L511.764,135 Z M502.98,143.208 C490.74,143.208 482.82,169.128 482.82,182.664 C482.82,193.752 487.428,193.896 490.02,193.896 C494.196,193.896 500.244,189.576 501.972,181.224 L508.884,148.68 C508.884,146.952 507.588,143.208 502.98,143.208 Z" id="Combined-Shape"></path>
            <path d="M548.916,135 L569.652,135 L567.78,143.928 C572.82,139.608 578.292,135 585.204,135 C591.684,135 595.14,140.328 595.14,145.8 C595.14,150.84 591.828,156.312 584.772,156.312 C576.708,156.312 580.74,146.808 576.42,146.808 C572.1,146.808 569.508,148.968 565.908,152.28 L554.388,207 L533.652,207 L548.916,135 Z" id="Path"></path>
            <path d="M634.74,154.872 C634.74,150.12 633.012,147.528 629.556,147.528 C624.372,147.528 620.484,153.576 618.324,160.776 L608.532,207 L587.796,207 L603.06,135 L623.796,135 L622.212,142.488 C628.26,135.576 634.596,134.424 639.06,134.424 C648.276,134.424 655.044,139.176 655.044,150.696 C655.044,162.36 648.132,179.784 648.132,187.848 C648.132,191.448 649.572,193.896 653.892,193.896 C660.228,193.896 662.82,188.712 665.988,181.224 L672.036,181.224 C663.972,204.84 652.884,207.864 645.252,207.864 C632.724,207.864 628.26,199.8 628.26,191.592 C628.26,181.8 634.74,164.088 634.74,154.872 Z" id="Path"></path>
            <path d="M714.372,135 L735.108,135 L724.74,183.96 C724.308,185.832 724.164,187.272 724.164,188.568 C724.164,192.6 726.036,193.896 730.068,193.896 C731.364,193.896 732.228,193.752 733.236,193.32 C729.348,203.4 726.612,207.864 718.836,207.864 C711.06,207.864 705.876,202.824 704.724,194.472 C700.404,201.096 693.492,207.864 683.268,207.864 C673.476,207.864 664.116,201.816 664.116,184.68 C664.116,165.24 676.068,134.28 701.124,134.28 C709.332,134.28 712.788,137.448 712.788,141.624 L712.788,142.632 L714.372,135 Z M705.588,143.208 C693.348,143.208 685.428,169.128 685.428,182.664 C685.428,193.752 690.036,193.896 692.628,193.896 C696.804,193.896 702.852,189.576 704.58,181.224 L711.492,148.68 C711.492,146.952 710.196,143.208 705.588,143.208 Z" id="Combined-Shape"></path>
            <path d="M797.604,115.416 L778.02,207 L798.756,207 L810.564,151.848 C813.156,151.56 816.036,151.416 817.188,151.416 C827.7,151.416 830.868,159.624 830.868,169.704 C830.868,180.648 827.124,195.624 816.612,195.624 C813.3,195.624 810.564,194.184 806.964,190.44 C805.668,193.752 805.092,196.488 805.092,198.792 C805.092,207.576 813.156,209.448 819.348,209.448 C843.396,209.448 850.884,181.8 850.884,167.976 C850.884,157.176 846.132,147.24 833.892,144.792 C843.252,139.464 848.292,130.392 848.292,121.896 C848.292,110.088 838.788,99 817.62,99 C790.404,99 765.348,117.288 765.348,137.16 C765.348,146.808 771.252,150.408 780.756,150.408 C780.612,149.112 778.74,147.96 778.74,140.616 C778.74,116.856 797.892,105.624 814.74,105.624 C828.42,105.624 833.748,112.968 833.748,121.176 C833.748,131.976 824.532,144.504 813.012,144.504 L812.148,144.504 L818.916,112.536 L797.604,115.416 Z" id="Path"></path>
            <path d="M875.364,183.672 C875.364,193.464 878.82,195.768 885.732,195.768 C897.108,195.768 904.02,189.432 911.22,181.224 L916.116,181.224 C907.908,194.472 895.668,207.864 876.516,207.864 C862.98,207.864 854.052,201.24 854.052,184.968 C854.052,168.408 863.412,133.704 892.932,133.704 C905.748,133.704 908.772,140.328 908.772,147.528 C908.772,164.088 892.932,176.904 875.652,177.912 C875.508,179.928 875.364,181.944 875.364,183.672 Z M897.684,147.24 C897.684,143.64 896.82,141.336 894.084,141.336 C886.74,141.336 879.684,156.744 876.804,171 C887.892,170.28 897.684,159.192 897.684,147.24 Z" id="Combined-Shape"></path>
            <path d="M956.58,135 L977.316,135 L963.06,201.816 C971.844,198.648 977.172,193.752 981.204,181.224 L987.252,181.224 C981.636,200.232 970.692,205.704 961.764,208.152 L959.604,218.52 C955.284,239.112 943.188,243 933.684,243 C924.9,243 917.556,238.392 917.556,229.032 C917.556,216.936 930.228,210.888 941.028,207.576 L942.756,199.8 C936.708,206.568 930.372,207.864 925.476,207.864 C916.836,207.864 910.068,202.68 910.068,190.584 C910.068,187.848 910.5,184.68 911.22,181.224 L921.012,135 L941.748,135 L931.38,183.96 C931.092,185.112 930.948,186.408 930.948,187.56 C930.948,190.872 931.956,193.896 935.268,193.896 C940.596,193.896 944.34,188.856 946.5,182.088 L956.58,135 Z M925.476,227.016 C925.476,229.032 927.204,231.768 930.372,231.768 C933.396,231.768 936.852,227.448 938.724,218.952 L939.588,214.776 C932.244,217.512 925.476,221.256 925.476,227.016 Z" id="Combined-Shape"></path>
            <path d="M1000.644,183.672 C1000.644,193.464 1004.1,195.768 1011.012,195.768 C1022.388,195.768 1029.3,189.432 1036.5,181.224 L1041.396,181.224 C1033.188,194.472 1020.948,207.864 1001.796,207.864 C988.26,207.864 979.332,201.24 979.332,184.968 C979.332,168.408 988.692,133.704 1018.212,133.704 C1031.028,133.704 1034.052,140.328 1034.052,147.528 C1034.052,164.088 1018.212,176.904 1000.932,177.912 C1000.788,179.928 1000.644,181.944 1000.644,183.672 Z M1022.964,147.24 C1022.964,143.64 1022.1,141.336 1019.364,141.336 C1012.02,141.336 1004.964,156.744 1002.084,171 C1013.172,170.28 1022.964,159.192 1022.964,147.24 Z" id="Combined-Shape"></path>
            <path d="M1046.292,135 L1067.028,135 L1065.156,143.928 C1070.196,139.608 1075.668,135 1082.58,135 C1089.06,135 1092.516,140.328 1092.516,145.8 C1092.516,150.84 1089.204,156.312 1082.148,156.312 C1074.084,156.312 1078.116,146.808 1073.796,146.808 C1069.476,146.808 1066.884,148.968 1063.284,152.28 L1051.764,207 L1031.028,207 L1046.292,135 Z" id="Path"></path>
        </g>
    </g>
</svg>